<?xml version="1.0" encoding="UTF-8"?>
<svg version="1.1" xmlns="http://www.w3.org/2000/svg" width="512" height="512">
<path d="M0 0 C1.04388382 -0.00101212 1.04388382 -0.00101212 2.1088562 -0.00204468 C66.37614044 0.09588886 124.6978119 24.65973575 172.9375 66.25 C173.79472656 66.97058594 174.65195312 67.69117187 175.53515625 68.43359375 C176.26605469 69.05363281 176.99695313 69.67367187 177.75 70.3125 C178.68779297 71.10333984 178.68779297 71.10333984 179.64453125 71.91015625 C180.9375 73.25 180.9375 73.25 180.9375 75.25 C181.5975 75.25 182.2575 75.25 182.9375 75.25 C184.3125 76.61328125 184.3125 76.61328125 185.9375 78.5625 C188.70025447 81.83015211 191.55559765 84.95802306 194.5 88.0625 C210.82952343 106.05223294 223.80467084 127.22326021 233.9375 149.25 C234.26169922 149.94818848 234.58589844 150.64637695 234.91992188 151.36572266 C262.46759488 211.44166646 264.34427615 281.78673292 242.01904297 343.80126953 C237.72626338 355.32215588 232.72027553 366.40558216 226.9375 377.25 C226.59638184 377.89888184 226.25526367 378.54776367 225.90380859 379.21630859 C216.22837742 397.51715908 203.89131754 413.75570489 189.94921875 429.01171875 C188.23143682 430.92295961 186.60286043 432.86789912 185 434.875 C184.319375 435.65875 183.63875 436.4425 182.9375 437.25 C182.2775 437.25 181.6175 437.25 180.9375 437.25 C180.9375 437.91 180.9375 438.57 180.9375 439.25 C179.5390625 440.66015625 179.5390625 440.66015625 177.5625 442.3125 C175.28006412 444.24287905 173.02380151 446.16869914 170.84765625 448.21875 C122.03141999 494.20381614 54.61363319 513.68153056 -11.19726562 512.38623047 C-58.8087164 510.7081614 -107.43465385 494.14029349 -146.0625 466.25 C-146.70203613 465.79689453 -147.34157227 465.34378906 -148.00048828 464.87695312 C-157.92218653 457.82560726 -166.8335701 450.05801427 -175.58398438 441.60888672 C-177.16130694 440.10921135 -177.16130694 440.10921135 -179.484375 438.47265625 C-180.00515625 438.06917969 -180.5259375 437.66570312 -181.0625 437.25 C-181.0625 436.59 -181.0625 435.93 -181.0625 435.25 C-181.7225 435.25 -182.3825 435.25 -183.0625 435.25 C-184.3671875 433.9921875 -184.3671875 433.9921875 -185.9375 432.125 C-188.16414441 429.48975486 -190.39776167 426.87550029 -192.69921875 424.3046875 C-205.96901916 409.41121348 -216.975148 392.98719139 -226.0625 375.25 C-226.5069043 374.39631836 -226.95130859 373.54263672 -227.40917969 372.66308594 C-257.53115747 314.3373249 -264.08929249 243.35550154 -244.13543701 180.67324829 C-235.81729313 154.9769625 -224.76226778 131.30568866 -209.0625 109.25 C-208.60794434 108.60611328 -208.15338867 107.96222656 -207.68505859 107.29882812 C-201.02645903 97.93338792 -193.77582857 89.43381026 -185.80078125 81.1640625 C-183.1053442 78.57451029 -183.1053442 78.57451029 -182.0625 76.25 C-181.4025 76.25 -180.7425 76.25 -180.0625 76.25 C-179.5675 74.765 -179.5675 74.765 -179.0625 73.25 C-177.56640625 71.7421875 -177.56640625 71.7421875 -175.625 70.125 C-172.58066284 67.55600672 -169.64906689 64.91872618 -166.75 62.1875 C-121.6332543 21.68574966 -60.2520787 0.05308395 0 0 Z " fill="#01C9C7" transform="translate(255.0625,-0.25)"/>
<path d="M0 0 C18.6056146 19.58004941 28.40809177 45.27229083 27.93359375 72.20703125 C26.28866878 98.81303992 15.72851271 122.82698391 -4.3125 140.75 C-5.240625 141.55566406 -6.16875 142.36132812 -7.125 143.19140625 C-9.36706638 144.99725295 -9.36706638 144.99725295 -10.3125 147.1875 C-9.65121094 147.2803125 -8.98992187 147.373125 -8.30859375 147.46875 C9.11971859 151.64972715 24.98724842 164.18357453 38.6875 175.1875 C39.25082031 175.62900391 39.81414062 176.07050781 40.39453125 176.52539062 C41.86344816 177.70018014 43.28029986 178.93944749 44.6875 180.1875 C44.6875 180.8475 44.6875 181.5075 44.6875 182.1875 C45.25339844 182.42082031 45.81929688 182.65414062 46.40234375 182.89453125 C68.87525395 195.60997275 84.29314107 233.05091047 91.02539062 256.4152832 C94.8934633 270.91553661 97.64043648 286.15227991 96.6875 301.1875 C93.14451712 301.9942346 89.86918116 302.31588342 86.23828125 302.3203125 C85.22572266 302.32160156 84.21316406 302.32289063 83.16992188 302.32421875 C82.12384766 302.32035156 81.07777344 302.31648438 80 302.3125 C78.94232422 302.31636719 77.88464844 302.32023437 76.79492188 302.32421875 C75.78623047 302.32292969 74.77753906 302.32164062 73.73828125 302.3203125 C72.81700439 302.31918457 71.89572754 302.31805664 70.9465332 302.31689453 C68.6875 302.1875 68.6875 302.1875 66.6875 301.1875 C66.32915255 298.25946441 66.07763631 295.37723458 65.875 292.4375 C64.55240594 276.87483566 61.13775692 261.46265877 54.6875 247.1875 C54.41067383 246.57100586 54.13384766 245.95451172 53.84863281 245.31933594 C47.27369013 230.88289422 38.65503865 218.64924316 27.6875 207.1875 C26.95402344 206.37925781 26.22054688 205.57101562 25.46484375 204.73828125 C2.01534249 179.80116555 -32.72817615 167.48254127 -66.3125 166.1875 C-102.98344391 165.56512891 -137.55793126 179.42011308 -164.1574707 204.51293945 C-191.04001394 230.78913544 -202.40054522 264.48154369 -205.3125 301.1875 C-209.03138866 302.0507601 -212.45546488 302.30471556 -216.26953125 302.28515625 C-217.38134766 302.28193359 -218.49316406 302.27871094 -219.63867188 302.27539062 C-220.78916016 302.26701172 -221.93964844 302.25863281 -223.125 302.25 C-224.87973633 302.24323242 -224.87973633 302.24323242 -226.66992188 302.23632812 C-229.55083358 302.2245693 -232.43164044 302.20813426 -235.3125 302.1875 C-236.14719125 278.87020524 -230.94175908 255.40309397 -221.3125 234.1875 C-221.02004395 233.54216309 -220.72758789 232.89682617 -220.42626953 232.23193359 C-213.63982098 217.50580729 -204.90899849 204.45813111 -194.3125 192.1875 C-193.56355469 191.30449219 -192.81460938 190.42148437 -192.04296875 189.51171875 C-187.99325353 184.81988652 -187.99325353 184.81988652 -186.3125 183.1875 C-185.6525 183.1875 -184.9925 183.1875 -184.3125 183.1875 C-184.3125 182.5275 -184.3125 181.8675 -184.3125 181.1875 C-183.6525 181.1875 -182.9925 181.1875 -182.3125 181.1875 C-182.3125 180.5275 -182.3125 179.8675 -182.3125 179.1875 C-170.77036703 168.24676073 -145.21357989 147.1875 -128.3125 147.1875 C-131.29217593 143.0904456 -134.7151739 140.02612363 -138.60546875 136.8359375 C-140.3125 135.1875 -140.3125 135.1875 -141.3125 132.1875 C-141.9725 132.1875 -142.6325 132.1875 -143.3125 132.1875 C-156.86312733 115.76931253 -165.82616618 94.586188 -166.3125 73.1875 C-166.36277344 72.21296875 -166.41304688 71.2384375 -166.46484375 70.234375 C-167.25719493 44.49880863 -157.0137233 20.35145286 -139.67529297 1.62451172 C-122.54892293 -16.43457357 -98.66746608 -27.50654976 -73.7109375 -28.83984375 C-45.73444332 -28.61474552 -20.42560656 -19.47557835 0 0 Z " fill="#FEFFFF" transform="translate(325.3125,101.8125)"/>
<path d="M0 0 C2.01171875 2.015625 2.01171875 2.015625 3.01171875 5.015625 C3.67171875 5.015625 4.33171875 5.015625 5.01171875 5.015625 C6.55776874 7.06892519 7.95401214 9.09826351 9.32421875 11.265625 C9.72648682 11.89952148 10.12875488 12.53341797 10.54321289 13.18652344 C20.0441718 28.52140448 23.6747691 45.3721777 19.93334961 63.1315918 C15.14615155 82.9973774 3.9309254 97.88665818 -13.484375 108.54296875 C-29.1546701 117.00853047 -46.95965307 119.01185799 -64.09082031 114.45654297 C-73.61178055 111.57981793 -81.28012317 107.37217897 -88.98828125 101.015625 C-90.01953125 100.273125 -91.05078125 99.530625 -92.11328125 98.765625 C-106.06001806 85.42526805 -112.84708242 68.23768633 -113.42578125 49.140625 C-113.25315211 29.61224887 -104.77096634 12.63827188 -90.98828125 -0.984375 C-63.97559322 -24.25231344 -26.72675144 -22.31781288 0 0 Z " fill="#01C9C7" transform="translate(301.98828125,120.984375)"/>
</svg>
