<?xml version="1.0" encoding="UTF-8"?>
<svg version="1.1" xmlns="http://www.w3.org/2000/svg" width="124" height="146">
<path d="M0 0 C40.92 0 81.84 0 124 0 C124 48.18 124 96.36 124 146 C83.08 146 42.16 146 0 146 C0 97.82 0 49.64 0 0 Z " fill="#090E0A" transform="translate(0,0)"/>
<path d="M0 0 C15.84 0 31.68 0 48 0 C48 34.65 48 69.3 48 105 C29.52 105 11.04 105 -8 105 C-7.01 102.36 -6.02 99.72 -5 97 C-5.89831543 97.01047363 -6.79663086 97.02094727 -7.72216797 97.03173828 C-11.05064447 97.0657947 -14.37893622 97.09088618 -17.70751953 97.10986328 C-19.14895547 97.11992963 -20.59037095 97.1335838 -22.03173828 97.15087891 C-24.10193934 97.17510012 -26.17187076 97.18647641 -28.2421875 97.1953125 C-30.11173096 97.21102295 -30.11173096 97.21102295 -32.01904297 97.22705078 C-35 97 -35 97 -37 95 C-36.67 93.68 -36.34 92.36 -36 91 C-24.12 91 -12.24 91 0 91 C0.99 88.03 1.98 85.06 3 82 C-9.87 82 -22.74 82 -36 82 C-36.33 80.68 -36.66 79.36 -37 78 C-36 77 -36 77 -32.03100586 76.88647461 C-30.25894393 76.8866338 -28.4868774 76.89233215 -26.71484375 76.90234375 C-25.78402481 76.9037587 -24.85320587 76.90517365 -23.8941803 76.90663147 C-20.90858809 76.91224828 -17.92306971 76.9248036 -14.9375 76.9375 C-12.91862087 76.94251284 -10.89974057 76.94707612 -8.88085938 76.95117188 C-3.92054428 76.96222317 1.03971532 76.97949905 6 77 C6.66 73.37 7.32 69.74 8 66 C7.28972656 65.50628906 6.57945313 65.01257813 5.84765625 64.50390625 C4.92855469 63.86324219 4.00945312 63.22257812 3.0625 62.5625 C2.14597656 61.92441406 1.22945312 61.28632812 0.28515625 60.62890625 C-2 59 -2 59 -3 58 C-3.1011692 54.90918535 -3.13968558 51.84117445 -3.1328125 48.75 C-3.13376923 47.82155273 -3.13472595 46.89310547 -3.13571167 45.93652344 C-3.13639355 43.96940035 -3.13453872 42.00227504 -3.13037109 40.03515625 C-3.12502295 37.01296974 -3.13031582 33.99093185 -3.13671875 30.96875 C-3.13605797 29.06249967 -3.13477681 27.15624943 -3.1328125 25.25 C-3.13483673 24.33959961 -3.13686096 23.42919922 -3.13894653 22.49121094 C-3.11494969 16.11494969 -3.11494969 16.11494969 -2 15 C0.01964199 14.92755947 2.04167124 14.91622812 4.0625 14.9375 C5.71958984 14.95103516 5.71958984 14.95103516 7.41015625 14.96484375 C8.26480469 14.97644531 9.11945313 14.98804688 10 15 C8.90169995 13.05916841 7.79613495 11.12244672 6.6875 9.1875 C6.07261719 8.10855469 5.45773438 7.02960937 4.82421875 5.91796875 C3.03071917 2.8059769 3.03071917 2.8059769 0 0 Z " fill="#095658" transform="translate(72,4)"/>
<path d="M0 0 C14.19 0 28.38 0 43 0 C48.66831683 5.66831683 48.66831683 5.66831683 50.8125 9.1875 C51.23144531 9.86167969 51.65039062 10.53585937 52.08203125 11.23046875 C53 13 53 13 53 15 C47.06 15.495 47.06 15.495 41 16 C40.72683828 21.83458152 40.52794301 27.66540303 40.39575195 33.50488281 C40.34063043 35.48796436 40.26570366 37.47060273 40.17016602 39.45214844 C39.18847394 49.96341855 39.18847394 49.96341855 42.11517334 59.71337891 C44.96198532 62.62844198 48.27217458 64.44422414 52 66 C50.125 74.75 50.125 74.75 49 77 C28.21 77.495 28.21 77.495 7 78 C7 78.99 7 79.98 7 81 C26.305 81.495 26.305 81.495 46 82 C45.01 84.97 44.02 87.94 43 91 C31.12 91.33 19.24 91.66 7 92 C7.33 93.32 7.66 94.64 8 96 C22.85 96.495 22.85 96.495 38 97 C37 103 37 103 35 105 C23.45 105 11.9 105 0 105 C0 70.35 0 35.7 0 0 Z " fill="#0B6D70" transform="translate(29,4)"/>
<path d="M0 0 C0.89464966 -0.00137466 1.78929932 -0.00274933 2.71105957 -0.00416565 C3.6950473 -0.00057037 4.67903503 0.0030249 5.69284058 0.00672913 C6.72701111 0.0065831 7.76118164 0.00643707 8.82669067 0.00628662 C12.25719271 0.00698528 15.68764096 0.01477551 19.11813354 0.02259827 C21.49182099 0.02446261 23.86550881 0.02588644 26.23919678 0.02688599 C32.4962164 0.03070986 38.75321292 0.04053905 45.01022339 0.05158997 C51.39124235 0.06180688 57.77226502 0.06638421 64.15328979 0.07142639 C76.68064342 0.08216141 89.207981 0.09904491 101.73532104 0.12025452 C101.73532104 2.10025452 101.73532104 4.08025452 101.73532104 6.12025452 C70.05532104 6.12025452 38.37532104 6.12025452 5.73532104 6.12025452 C6.06532104 7.44025452 6.39532104 8.76025452 6.73532104 10.12025452 C53.76032104 10.61525452 53.76032104 10.61525452 101.73532104 11.12025452 C101.73532104 13.76025452 101.73532104 16.40025452 101.73532104 19.12025452 C54.71032104 19.61525452 54.71032104 19.61525452 6.73532104 20.12025452 C6.73532104 21.11025452 6.73532104 22.10025452 6.73532104 23.12025452 C53.76032104 23.61525452 53.76032104 23.61525452 101.73532104 24.12025452 C101.73532104 26.76025452 101.73532104 29.40025452 101.73532104 32.12025452 C87.88794515 32.21378065 74.04061838 32.28400802 60.19299126 32.3275032 C53.76297934 32.34837863 47.3331796 32.3766962 40.90328979 32.42201233 C34.69819172 32.46547056 28.49329775 32.48939196 22.28805923 32.49976349 C19.92056185 32.50715481 17.55307564 32.52158823 15.18566513 32.54317474 C11.86977744 32.57220746 8.55473334 32.57621044 5.23873901 32.57435608 C3.77030296 32.59592773 3.77030296 32.59592773 2.27220154 32.61793518 C-3.42792059 32.58343781 -6.7695305 31.97975044 -11.26467896 28.12025452 C-14.99456671 23.89959206 -15.81231276 20.74335701 -15.51077271 15.28822327 C-14.79565122 8.98834352 -12.72678711 6.19877826 -7.92092896 2.31947327 C-5.12145271 0.29249401 -3.40655832 -0.00402666 0 0 Z " fill="#40C0C5" transform="translate(18.264678955078125,113.87974548339844)"/>
<path d="M0 0 C0 34.98 0 69.96 0 106 C-7.425 106.99 -7.425 106.99 -15 108 C-16.32 108.99 -17.64 109.98 -19 111 C-19.66 111 -20.32 111 -21 111 C-21.06961864 98.24747475 -21.1228716 85.49499499 -21.15543652 72.74231815 C-21.17106881 66.82024976 -21.19226276 60.89831174 -21.22631836 54.97631836 C-21.25899842 49.25750389 -21.27687133 43.53881454 -21.28463173 37.81991386 C-21.2901597 35.64191151 -21.30095442 33.46391573 -21.31719017 31.28596687 C-21.33907913 28.22703566 -21.34196211 25.16861652 -21.34057617 22.10961914 C-21.35675491 20.76957069 -21.35675491 20.76957069 -21.3732605 19.40245056 C-21.34530366 13.67160497 -20.77757694 8.11633341 -18 3 C-14 0 -14 0 0 0 Z " fill="#F7BF16" transform="translate(24,4)"/>
<path d="M0 0 C10.89 0 21.78 0 33 0 C35.42049699 35.37511533 35.42049699 35.37511533 29.80078125 41.94140625 C26.16474685 44.97376253 22.55495075 46.74981139 18 48 C13.76319979 47.35273231 10.72533898 44.94152157 7.3125 42.5 C6.71888672 42.08363281 6.12527344 41.66726562 5.51367188 41.23828125 C1.19507119 38.19507119 1.19507119 38.19507119 0 37 C-0.08858646 34.26105915 -0.11523479 31.5474673 -0.09765625 28.80859375 C-0.0962413 27.98875504 -0.09482635 27.16891632 -0.09336853 26.32423401 C-0.08775289 23.69528618 -0.07519779 21.06642227 -0.0625 18.4375 C-0.05748701 16.65950643 -0.05292376 14.88151154 -0.04882812 13.10351562 C-0.03862752 8.73561842 -0.01905532 4.3679036 0 0 Z " fill="#F6BE16" transform="translate(74,23)"/>
<path d="M0 0 C1.77206192 0.00015919 3.54412846 0.00585754 5.31616211 0.01586914 C6.24698105 0.01728409 7.17779999 0.01869904 8.13682556 0.02015686 C11.12241777 0.02577367 14.10793615 0.03832899 17.09350586 0.05102539 C19.11238499 0.05603823 21.13126529 0.06060151 23.15014648 0.06469727 C28.11046158 0.07574856 33.07072118 0.09302444 38.03100586 0.11352539 C38.32887787 6.23288578 38.54591158 12.34798964 38.69018555 18.47290039 C38.75033986 20.55307528 38.83209545 22.63274669 38.9362793 24.71118164 C39.7819067 42.02167193 39.7819067 42.02167193 35.46459961 47.1796875 C32.3913354 49.213755 29.40855754 50.66061361 26.03100586 52.11352539 C23.54998599 53.89244279 23.54998599 53.89244279 21.53100586 55.67602539 C19.74975586 57.17993164 19.74975586 57.17993164 18.03100586 58.11352539 C13.66007831 57.40681826 10.5791324 54.86841522 7.09350586 52.30102539 C6.18181641 51.64263672 6.18181641 51.64263672 5.25170898 50.97094727 C3.49975256 49.69903068 1.75640947 48.4212914 0.03100586 47.11352539 C-0.85353271 46.59790039 -1.73807129 46.08227539 -2.64941406 45.55102539 C-5.66127917 42.38604684 -5.54668533 40.52530826 -5.56112671 36.28242493 C-5.53845734 35.38750839 -5.51578796 34.49259186 -5.49243164 33.57055664 C-5.48772858 32.64635422 -5.48302551 31.72215179 -5.47817993 30.76994324 C-5.45684198 27.8212103 -5.40020624 24.8742779 -5.34399414 21.92602539 C-5.32748824 19.92929745 -5.31313986 17.93255043 -5.30102539 15.93579102 C-5.15359759 0.14740868 -5.15359759 0.14740868 0 0 Z M0.03100586 4.11352539 C-0.24633586 9.22637128 -0.48414642 14.31283269 -0.62817383 19.42724609 C-0.68819417 21.16122084 -0.7698531 22.89459635 -0.87426758 24.62646484 C-1.76672581 34.10419302 -1.76672581 34.10419302 1.19921875 42.78863525 C4.37265517 45.96941388 8.04741301 48.05547029 12.03100586 50.11352539 C13.02100586 50.77352539 14.01100586 51.43352539 15.03100586 52.11352539 C21.05687881 51.65129912 27.39736827 46.9707975 31.67614746 42.90612793 C35.98153672 37.2097011 34.37885303 28.6772099 33.90600586 21.98852539 C33.8356681 20.2517986 33.77180916 18.51479669 33.71459961 16.77758789 C33.57320499 12.54382885 33.30024162 8.34864659 33.03100586 4.11352539 C22.14100586 4.11352539 11.25100586 4.11352539 0.03100586 4.11352539 Z " fill="#070A06" transform="translate(73.968994140625,18.886474609375)"/>
<path d="M0 0 C10.89 0 21.78 0 33 0 C35.42049699 35.37511533 35.42049699 35.37511533 29.80078125 41.94140625 C26.16474685 44.97376253 22.55495075 46.74981139 18 48 C13.99850349 47.39157969 11.27525414 45.30756542 8 43 C8.33 42.195625 8.66 41.39125 9 40.5625 C10.2077978 36.25972033 10.94558817 32.42062468 10 28 C8.22719254 25.47993358 6.42505428 23.9703566 4 22 C4.33 21.01 4.66 20.02 5 19 C10.35152885 19.32433508 13.28280043 22.49704824 17 26 C17.39251953 24.92685547 17.39251953 24.92685547 17.79296875 23.83203125 C19.05388805 20.87356363 20.52676132 18.36016875 22.3125 15.6875 C22.88613281 14.80449219 23.45976563 13.92148437 24.05078125 13.01171875 C24.69402344 12.34785156 25.33726563 11.68398438 26 11 C27.65 11 29.3 11 31 11 C31.33 7.7 31.66 4.4 32 1 C21.77 1 11.54 1 1 1 C1 12.88 1 24.76 1 37 C0.67 37 0.34 37 0 37 C0 24.79 0 12.58 0 0 Z " fill="#BD9210" transform="translate(74,23)"/>
<path d="M0 0 C21.45 0 42.9 0 65 0 C65 2.64 65 5.28 65 8 C43.55 8 22.1 8 0 8 C0 5.36 0 2.72 0 0 Z " fill="#33999D" transform="translate(55,138)"/>
<path d="M0 0 C1.11696762 0.00222061 2.23393524 0.00444122 3.38475037 0.00672913 C4.64598221 0.00680466 5.90721405 0.00688019 7.20666504 0.00695801 C8.59341979 0.01206542 9.98017414 0.01728142 11.3669281 0.02259827 C12.77797394 0.0244625 14.18902042 0.02588638 15.60006714 0.02688599 C19.3204272 0.03071072 23.04074845 0.04054062 26.76109314 0.05158997 C30.55482966 0.06180504 34.34857243 0.06638381 38.14231873 0.07142639 C45.59090416 0.08216294 53.03945758 0.09923882 60.48802185 0.12025452 C60.48802185 2.76025452 60.48802185 5.40025452 60.48802185 8.12025452 C39.03802185 8.12025452 17.58802185 8.12025452 -4.51197815 8.12025452 C-3.3750233 0.16157059 -3.3750233 0.16157059 0 0 Z " fill="#339A9E" transform="translate(59.51197814941406,124.87974548339844)"/>
<path d="M0 0 C34.98 0 69.96 0 106 0 C106 1.98 106 3.96 106 6 C74.98 6 43.96 6 12 6 C12 5.67 12 5.34 12 5 C23.22 4.67 34.44 4.34 46 4 C46.33 3.01 46.66 2.02 47 1 C31.49 1 15.98 1 0 1 C0 0.67 0 0.34 0 0 Z " fill="#309296" transform="translate(14,114)"/>
<path d="M0 0 C7.26 0 14.52 0 22 0 C22 4.62 22 9.24 22 14 C21.67 12.68 21.34 11.36 21 10 C18.656054 9.95488741 18.656054 9.95488741 16 11 C14.06263267 13.1512081 12.65026612 15.57263355 11.1875 18.0625 C10.78080078 18.72572266 10.37410156 19.38894531 9.95507812 20.07226562 C8.95587422 21.7062579 7.97601184 23.35204973 7 25 C3.83884224 23.63016497 3.0072908 23.0109362 1 20 C1.66 20 2.32 20 3 20 C2.69055299 17.41626766 2.37756043 14.83304867 2.0625 12.25 C1.97548828 11.52039062 1.88847656 10.79078125 1.79882812 10.0390625 C1.37744388 6.60556122 0.84064882 3.36259528 0 0 Z " fill="#C79A11" transform="translate(84,24)"/>
<path d="M0 0 C1.22244667 0.00333092 1.22244667 0.00333092 2.46958923 0.00672913 C3.39046829 0.00680466 4.31134735 0.00688019 5.26013184 0.00695801 C6.2611644 0.01211929 7.26219696 0.01728058 8.29356384 0.02259827 C9.31316696 0.02401321 10.33277008 0.02542816 11.38327026 0.02688599 C14.65417867 0.03250355 17.92501972 0.04505902 21.19590759 0.05775452 C23.40749515 0.06276725 25.61908377 0.06733055 27.83067322 0.07142639 C33.26494116 0.08247868 38.69916957 0.09923389 44.13340759 0.12025452 C44.69590759 2.05775452 44.69590759 2.05775452 45.13340759 4.12025452 C44.13340759 5.12025452 44.13340759 5.12025452 42.26681519 5.24050903 C41.45185074 5.23828842 40.63688629 5.23606781 39.79722595 5.23377991 C38.41590736 5.23366661 38.41590736 5.23366661 37.00668335 5.23355103 C36.00565079 5.22838974 35.00461823 5.22322845 33.97325134 5.21791077 C32.95364822 5.21649582 31.9340451 5.21508087 30.88354492 5.21362305 C27.61263652 5.20800548 24.34179546 5.19545002 21.07090759 5.18275452 C18.85932004 5.17774178 16.64773141 5.17317848 14.43614197 5.16908264 C9.00187402 5.15803035 3.56764562 5.14127515 -1.86659241 5.12025452 C-2.42909241 3.18275452 -2.42909241 3.18275452 -2.86659241 1.12025452 C-1.86659241 0.12025452 -1.86659241 0.12025452 0 0 Z " fill="#010909" transform="translate(37.86659240722656,94.87974548339844)"/>
<path d="M0 0 C1.22244667 0.00333092 1.22244667 0.00333092 2.46958923 0.00672913 C3.39046829 0.00680466 4.31134735 0.00688019 5.26013184 0.00695801 C6.2611644 0.01211929 7.26219696 0.01728058 8.29356384 0.02259827 C9.31316696 0.02401321 10.33277008 0.02542816 11.38327026 0.02688599 C14.65417867 0.03250355 17.92501972 0.04505902 21.19590759 0.05775452 C23.40749515 0.06276725 25.61908377 0.06733055 27.83067322 0.07142639 C33.26494116 0.08247868 38.69916957 0.09923389 44.13340759 0.12025452 C44.69590759 2.05775452 44.69590759 2.05775452 45.13340759 4.12025452 C44.13340759 5.12025452 44.13340759 5.12025452 42.26681519 5.24050903 C41.45185074 5.23828842 40.63688629 5.23606781 39.79722595 5.23377991 C38.41590736 5.23366661 38.41590736 5.23366661 37.00668335 5.23355103 C36.00565079 5.22838974 35.00461823 5.22322845 33.97325134 5.21791077 C32.95364822 5.21649582 31.9340451 5.21508087 30.88354492 5.21362305 C27.61263652 5.20800548 24.34179546 5.19545002 21.07090759 5.18275452 C18.85932004 5.17774178 16.64773141 5.17317848 14.43614197 5.16908264 C9.00187402 5.15803035 3.56764562 5.14127515 -1.86659241 5.12025452 C-2.42909241 3.18275452 -2.42909241 3.18275452 -2.86659241 1.12025452 C-1.86659241 0.12025452 -1.86659241 0.12025452 0 0 Z " fill="#000405" transform="translate(37.86659240722656,80.87974548339844)"/>
<path d="M0 0 C0.74894531 0.09667969 1.49789062 0.19335938 2.26953125 0.29296875 C1.3078775 5.09457323 -1.30883956 8.50130272 -4.04296875 12.48046875 C-4.52958984 13.21716797 -5.01621094 13.95386719 -5.51757812 14.71289062 C-5.99646484 15.41349609 -6.47535156 16.11410156 -6.96875 16.8359375 C-7.40227783 17.4755542 -7.83580566 18.1151709 -8.2824707 18.77416992 C-10.06675464 20.64569755 -11.16147723 21.09624558 -13.73046875 21.29296875 C-15.85264807 19.70726214 -17.61382435 18.20006617 -19.48046875 16.35546875 C-19.98707031 15.87400391 -20.49367188 15.39253906 -21.015625 14.89648438 C-22.26459379 13.70642921 -23.49897905 12.50110262 -24.73046875 11.29296875 C-24.40046875 10.30296875 -24.07046875 9.31296875 -23.73046875 8.29296875 C-18.3789399 8.61730383 -15.44766832 11.79001699 -11.73046875 15.29296875 C-11.46878906 14.57753906 -11.20710938 13.86210938 -10.9375 13.125 C-9.6765807 10.16653238 -8.20370743 7.6531375 -6.41796875 4.98046875 C-5.84433594 4.09746094 -5.27070312 3.21445312 -4.6796875 2.3046875 C-2.73046875 0.29296875 -2.73046875 0.29296875 0 0 Z " fill="#151001" transform="translate(102.73046875,33.70703125)"/>
<path d="M0 0 C0.87687735 2.94285354 0.98812315 5.26560607 0.75 8.3125 C0.69187166 12.72298781 1.83231218 15.06351001 4.515625 18.4921875 C6.30250734 20.38226692 6.30250734 20.38226692 10 23 C5.71 23 1.42 23 -3 23 C-3 18.05 -3 13.1 -3 8 C-2.34 8 -1.68 8 -1 8 C-0.67 5.36 -0.34 2.72 0 0 Z " fill="#2A3435" transform="translate(3,123)"/>
<path d="M0 0 C2.64 0 5.28 0 8 0 C8 0.33 8 0.66 8 1 C5.69 1 3.38 1 1 1 C1 6.61 1 12.22 1 18 C1.66 18 2.32 18 3 18 C2.84660156 18.51046875 2.69320312 19.0209375 2.53515625 19.546875 C1.83094597 22.7749338 1.65111796 25.95418001 1.4375 29.25 C1.35371094 30.51328125 1.26992187 31.7765625 1.18359375 33.078125 C1.12300781 34.04234375 1.06242187 35.0065625 1 36 C0.67 36 0.34 36 0 36 C0 24.12 0 12.24 0 0 Z " fill="#FEC817" transform="translate(75,24)"/>
<path d="M0 0 C2.64 0 5.28 0 8 0 C6.8553125 0.8971875 6.8553125 0.8971875 5.6875 1.8125 C3.6516425 3.46959332 1.8021721 5.10297674 0 7 C0 4.69 0 2.38 0 0 Z " fill="#EEEEEE" transform="translate(0,0)"/>
</svg>
